<svg width="142" height="37" viewBox="0 0 142 37" fill="none" xmlns="http://www.w3.org/2000/svg">
<path d="M27.5122 20.879C27.3046 20.7617 27.0991 20.6379 26.8981 20.5141C25.1111 19.3999 25.1111 16.826 26.8981 15.7139C27.0991 15.588 27.3046 15.4663 27.5122 15.349C29.4561 14.2457 30.1232 11.8 29.001 9.88859C27.8789 7.97721 25.3916 7.32126 23.4477 8.42465C23.3483 8.48112 23.2467 8.53759 23.1451 8.59189C21.2255 9.63229 18.8421 8.30084 18.8376 6.14838V6.10711C18.8376 3.90034 17.0175 2.1106 14.7732 2.1106C12.5289 2.1106 10.7087 3.90034 10.7087 6.10711C10.7087 6.12014 10.7087 6.13534 10.7087 6.14838C10.7043 8.30302 8.3208 9.63229 6.40122 8.59189C6.29961 8.53759 6.20021 8.48112 6.0986 8.42465C4.15471 7.32126 1.66743 7.97504 0.545281 9.88859C-0.576868 11.8 0.0880274 14.2457 2.03412 15.349C2.24176 15.4663 2.44719 15.5901 2.64821 15.7139C4.43525 16.8282 4.43525 19.402 2.64821 20.5141C2.44719 20.6401 2.24176 20.7617 2.03412 20.879C0.0902364 21.9824 -0.576868 24.4259 0.545281 26.3394C1.66743 28.253 4.15471 28.9068 6.0986 27.8034C6.198 27.7469 6.29961 27.6904 6.40122 27.6361C8.3208 26.5957 10.7043 27.9272 10.7087 30.0797C10.7087 30.0927 10.7087 30.1079 10.7087 30.1209C10.7087 32.3277 12.5289 34.1174 14.7732 34.1174C17.0175 34.1174 18.8376 32.3277 18.8376 30.1209V30.0797C18.8421 27.925 21.2255 26.5957 23.1451 27.634C23.2467 27.6883 23.3461 27.7447 23.4477 27.8012C25.3916 28.9046 27.8789 28.2508 29.001 26.3373C30.1232 24.4259 29.4583 21.9802 27.5122 20.8768V20.879ZM27.2781 25.362C26.9092 25.9919 26.2178 26.3829 25.4756 26.3829C25.1155 26.3829 24.7576 26.2873 24.4418 26.1092C21.5061 24.4433 18.1639 23.5614 14.7732 23.5614C11.3824 23.5614 8.04027 24.4433 5.10457 26.1092C4.78427 26.2917 4.43525 26.3829 4.07077 26.3829C3.32857 26.3829 2.63937 25.9919 2.26827 25.362C1.69615 24.3868 2.03633 23.1357 3.02815 22.5732C8.99233 19.187 12.6967 12.8773 12.6967 6.10711C12.6967 4.982 13.6289 4.06541 14.7732 4.06541C15.9174 4.06541 16.8496 4.982 16.8496 6.10711C16.8496 12.8773 20.554 19.187 26.5182 22.5732C26.9975 22.8468 27.3421 23.2856 27.4857 23.8134C27.6293 24.3412 27.5564 24.8907 27.2781 25.362Z" fill="url(#paint0_linear_1116_231)"/>
<path d="M104.739 13.3697H108.013V28.5273H104.739V26.3446C103.587 27.9513 101.798 28.9214 99.4337 28.9214C95.3109 28.9214 91.8853 25.4351 91.8853 20.9485C91.8853 16.4315 95.3109 12.9756 99.4337 12.9756C101.798 12.9756 103.587 13.9457 104.739 15.5221V13.3697ZM99.9491 25.7989C102.677 25.7989 104.739 23.7678 104.739 20.9485C104.739 18.1292 102.677 16.0981 99.9491 16.0981C97.2207 16.0981 95.1593 18.1292 95.1593 20.9485C95.1593 23.7678 97.2207 25.7989 99.9491 25.7989Z" fill="white"/>
<path d="M86.3571 15.9162C87.2665 13.8548 89.1157 13.0969 91.0256 13.0969V16.6438C88.8732 16.4922 86.3571 17.4926 86.3571 20.8879V28.5274H83.083V13.3698H86.3571V15.9162Z" fill="white"/>
<path d="M75.9803 13.3696H79.2544V28.5272H75.9803V26.5871C74.9799 28.1635 73.3429 28.9213 71.2815 28.9213C67.8862 28.9213 65.4609 26.6174 65.4609 22.6764V13.3696H68.735V22.3429C68.735 24.6469 70.0689 25.8595 72.1303 25.8595C74.2827 25.8595 75.9803 24.5863 75.9803 21.4941V13.3696Z" fill="white"/>
<path d="M60.1128 28.5273L58.6274 24.2529H49.5935L48.108 28.5273H44.3186L52.0187 7.30664H56.2022L63.8719 28.5273H60.1128ZM50.7454 20.9788H57.4754L54.1104 11.3992L50.7454 20.9788Z" fill="white"/>
<path d="M114.887 20.5686V23.3637C114.541 22.9644 113.974 22.7249 113.344 22.7249C111.747 22.7249 110.844 24.0711 110.844 25.5428C110.844 27.0031 111.747 28.3494 113.344 28.3494C113.974 28.3494 114.541 28.1098 114.887 27.7105V28.2011H116V20.5686H114.887ZM114.929 25.5428C114.929 26.6837 114.184 27.2313 113.417 27.2313C112.545 27.2313 111.957 26.4555 111.957 25.5428C111.957 24.6187 112.545 23.8429 113.417 23.8429C114.184 23.8429 114.929 24.4019 114.929 25.5428Z" fill="#F7F5F4"/>
<path d="M120.025 22.7249C118.523 22.7249 117.4 23.9228 117.4 25.5428C117.4 27.1514 118.523 28.3494 120.025 28.3494C121.506 28.3494 122.64 27.1514 122.64 25.5428C122.64 23.9228 121.506 22.7249 120.025 22.7249ZM120.025 27.2313C119.154 27.2313 118.513 26.5012 118.513 25.5428C118.513 24.5617 119.154 23.8429 120.025 23.8429C120.907 23.8429 121.527 24.5617 121.527 25.5428C121.527 26.5012 120.907 27.2313 120.025 27.2313Z" fill="#F7F5F4"/>
<path d="M128.697 24.5274C128.329 23.4208 127.426 22.7249 126.334 22.7249C124.864 22.7249 123.74 23.9228 123.74 25.5314C123.74 27.1514 124.864 28.3494 126.334 28.3494C127.426 28.3494 128.329 27.6534 128.697 26.5468H127.531C127.279 26.9917 126.838 27.2313 126.334 27.2313C125.462 27.2313 124.853 26.4897 124.853 25.5314C124.853 24.5617 125.462 23.8429 126.334 23.8429C126.838 23.8429 127.279 24.0825 127.531 24.5274H128.697Z" fill="#F7F5F4"/>
<path d="M134.488 24.4134C134.236 23.455 133.438 22.7249 131.968 22.7249C130.624 22.7249 129.794 23.4778 129.794 24.4476C129.794 25.4059 130.34 25.8737 131.433 25.9992L132.43 26.1018C133.018 26.1589 133.323 26.3186 133.323 26.6951C133.323 27.0944 132.892 27.2998 132.315 27.2998C131.527 27.2998 131.034 27.0716 130.865 26.581H129.647C129.868 27.6306 130.76 28.3494 132.199 28.3494C133.596 28.3494 134.436 27.6078 134.436 26.6381C134.436 25.6341 133.827 25.1435 132.745 25.0522L131.811 24.9724C131.223 24.9153 130.907 24.767 130.907 24.4019C130.907 24.0026 131.317 23.7745 131.947 23.7745C132.619 23.7745 133.071 23.9684 133.281 24.4134H134.488Z" fill="#F7F5F4"/>
<defs>
<linearGradient id="paint0_linear_1116_231" x1="20.5747" y1="27.4091" x2="12.283" y2="7.47108" gradientUnits="userSpaceOnUse">
<stop stop-color="#FFD569"/>
<stop offset="0.515056" stop-color="#FC8E4F"/>
<stop offset="1" stop-color="#FF697B"/>
</linearGradient>
</defs>
</svg>
