<svg xmlns="http://www.w3.org/2000/svg" width="32" height="35" viewBox="0 0 32 35" fill="none">
<path d="M29.7969 20.0453V20.0475C29.5722 19.9229 29.3497 19.7915 29.1318 19.6601C27.1965 18.4762 27.1965 15.7421 29.1318 14.561C29.3497 14.4271 29.5722 14.2978 29.7969 14.1732C31.9023 13.0012 32.6247 10.4033 31.4094 8.37266C30.1942 6.34235 27.5003 5.64549 25.3952 6.81753C25.2875 6.87778 25.1773 6.93772 25.0674 6.9955C22.9883 8.10041 20.407 6.68608 20.402 4.39975V4.35573C20.402 2.01165 18.4306 0.110596 15.9999 0.110596C13.5692 0.110596 11.5982 2.01165 11.5982 4.35573V4.39975C11.5932 6.68858 9.01186 8.10041 6.93278 6.9955C6.8229 6.93772 6.71518 6.87778 6.60495 6.81753C4.49989 5.64549 1.80587 6.34016 0.590675 8.37266C-0.624833 10.4033 0.0953289 13.0012 2.2029 14.1732C2.42802 14.2978 2.65033 14.4293 2.86827 14.561C4.80363 15.7446 4.80363 18.4786 2.86827 19.6601C2.65033 19.7937 2.42802 19.9229 2.2029 20.0475C0.0978334 21.2196 -0.624833 23.8153 0.590675 25.8481C1.80587 27.8806 4.49989 28.5754 6.60495 27.4032C6.71267 27.343 6.8229 27.283 6.93278 27.2256C9.01186 26.1203 11.5932 27.5347 11.5982 29.8211V29.8651C11.5982 32.2095 13.5692 34.1106 15.9999 34.1106C18.4306 34.1106 20.402 32.2095 20.402 29.8651V29.8211C20.407 27.5322 22.9883 26.1204 25.0674 27.2231C25.1773 27.2808 25.285 27.3408 25.3952 27.4007C27.5003 28.5728 30.1942 27.8784 31.4094 25.8456C32.6247 23.8153 31.9048 21.2174 29.7969 20.0453ZM15.9999 32.4754C13.8031 32.4754 12.0215 30.7574 12.0215 28.6382V28.5987C12.0171 26.5322 9.68755 25.2605 7.80481 26.2527C7.70587 26.3052 7.60597 26.3589 7.5086 26.4132C5.60612 27.4725 3.17103 26.8447 2.07264 25.0079C0.974237 23.1706 1.62739 20.8243 3.52987 19.7649C3.73339 19.6525 3.9344 19.5355 4.13136 19.415C5.8804 18.3472 5.88322 15.8714 4.13136 14.8061C3.93471 14.6865 3.73339 14.5682 3.52987 14.4558C1.62489 13.3965 0.974237 11.0483 2.07264 9.21314C3.17103 7.37609 5.60204 6.7554 7.5086 7.80757C7.60785 7.86219 7.70556 7.9159 7.80481 7.96833C9.6863 8.96275 12.0171 7.69079 12.0215 5.62206V5.58242C12.0215 3.46377 13.8031 1.74565 15.9999 1.74565C18.1967 1.74565 19.9787 3.46377 19.9787 5.58242V5.62206C19.9834 7.6886 22.3142 8.96275 24.1954 7.96833C24.2946 7.9159 24.3945 7.86188 24.4919 7.80757C26.3944 6.74821 28.8295 7.37796 29.9276 9.21314C31.0259 11.0483 30.373 13.3965 28.4703 14.4558C28.2671 14.5682 28.0661 14.6853 27.8691 14.8061C26.1197 15.8739 26.1166 18.3503 27.8691 19.415C28.0657 19.5342 28.2671 19.6525 28.4703 19.7649V19.7631C30.3753 20.8224 31.0259 23.1706 29.9276 25.0054C28.8295 26.8428 26.3997 27.461 24.4919 26.411C24.3923 26.3564 24.2949 26.3027 24.1954 26.2505C22.3164 25.254 19.9834 26.53 19.9787 28.5987V28.6382C19.9787 30.7574 18.197 32.4754 15.9999 32.4754Z" fill="#3189E2"/>
<path d="M27.1165 19.4788V19.4807C26.9353 19.3799 26.7557 19.2745 26.5805 19.1678C25.0184 18.2173 25.0212 16.0062 26.5805 15.0532C26.7564 14.945 26.9353 14.8408 27.1165 14.7404C28.8131 13.7945 29.3949 11.6979 28.4156 10.0593C27.4367 8.42095 25.2661 7.85853 23.57 8.80435C23.4831 8.853 23.3941 8.90137 23.3057 8.94814C21.6286 9.83564 19.5508 8.69829 19.5468 6.85342V6.81788C19.5468 4.92624 17.9584 3.39209 15.9999 3.39209C14.0414 3.39209 12.4533 4.92624 12.4533 6.81788V6.85342C12.4493 8.70045 10.3718 9.83564 8.69438 8.94814C8.60597 8.90137 8.51884 8.85331 8.43043 8.80435C6.73055 7.86507 4.56369 8.4191 3.58446 10.0593C2.6052 11.6979 3.18558 13.7945 4.88357 14.7404C5.06505 14.8408 5.24435 14.9462 5.41958 15.0532C6.98139 16.0044 6.97888 18.2145 5.41958 19.1678C5.24404 19.2758 5.06505 19.3799 4.88357 19.4807C3.18744 20.4265 2.6052 22.5209 3.58446 24.1614C4.56369 25.8016 6.73432 26.3622 8.43043 25.4164C8.51727 25.3677 8.60597 25.3197 8.69438 25.2729C10.3727 24.387 12.4493 25.5225 12.4533 27.3673V27.4029C12.4533 29.2948 14.0417 30.8291 15.9999 30.8291C17.9581 30.8291 19.5468 29.2948 19.5468 27.4029V27.3673C19.5508 25.5206 21.6305 24.381 23.3057 25.271C23.3944 25.3175 23.4813 25.3656 23.57 25.4145C25.2708 26.3516 27.4367 25.7998 28.4156 24.1596C29.3949 22.5209 28.8148 20.4246 27.1165 19.4788ZM26.9372 23.3201C26.0748 24.7651 24.1669 25.2514 22.6685 24.4257C22.5904 24.3826 22.5139 24.3405 22.4358 24.2993C20.9602 23.5154 19.1282 24.5189 19.1244 26.146V26.1772C19.1244 27.844 17.7254 29.1953 15.9999 29.1953C14.2744 29.1953 12.8756 27.844 12.8756 26.1772V26.146C12.8722 24.5208 11.0427 23.5204 9.56429 24.3012C9.48652 24.3421 9.40812 24.3845 9.3316 24.4272C7.83756 25.2604 5.92529 24.7666 5.06285 23.322C4.20012 21.8768 4.71303 20.0316 6.20736 19.1984C6.36698 19.1098 6.52473 19.0178 6.67965 18.9229C8.05311 18.0832 8.05528 16.136 6.67965 15.2981C6.52504 15.2042 6.36698 15.111 6.20736 15.0224C4.71146 14.1891 4.20012 12.3424 5.06285 10.8991C5.92529 9.45412 7.83445 8.96594 9.3316 9.79353C9.40969 9.83658 9.48652 9.87869 9.56429 9.91986C11.0418 10.7019 12.8722 9.70181 12.8756 8.07471V8.04352C12.8756 6.3771 14.2747 5.02575 15.9999 5.02575C17.725 5.02575 19.1244 6.3771 19.1244 8.04352V8.07471C19.1282 9.69993 20.9583 10.7019 22.4358 9.91986C22.5139 9.87869 22.5919 9.83627 22.6685 9.79353C24.1625 8.96031 26.0748 9.45568 26.9372 10.8991C27.8 12.3424 27.2871 14.1891 25.7927 15.0224C25.6331 15.111 25.4754 15.203 25.3207 15.2981C23.947 16.1379 23.9445 18.0857 25.3207 18.9229C25.4751 19.0168 25.6331 19.1098 25.7927 19.1984V19.1968C27.2889 20.03 27.8 21.8768 26.9372 23.3201Z" fill="#3189E2"/>
<path d="M24.5146 18.9123V18.9136C24.3761 18.8373 24.2386 18.7569 24.1045 18.6759C22.9076 17.9526 22.9098 16.2704 24.1045 15.5452C24.2389 15.463 24.3761 15.3838 24.5146 15.3072C25.8141 14.5876 26.2598 12.9927 25.5098 11.746C24.7599 10.4996 23.0973 10.0719 21.7981 10.7912C21.7318 10.8282 21.6637 10.865 21.5959 10.9005C20.3114 11.5759 18.7198 10.7105 18.7167 9.30681V9.28002C18.7167 7.84082 17.5 6.67358 15.9998 6.67358C14.4996 6.67358 13.2833 7.84082 13.2833 9.28002V9.30681C13.2805 10.7121 11.6889 11.5759 10.4041 10.9005C10.3366 10.865 10.2697 10.8286 10.2019 10.7912C8.89983 10.0769 7.24009 10.4984 6.49016 11.746C5.7402 12.9927 6.18459 14.5876 7.48504 15.3072C7.62416 15.3838 7.7614 15.4642 7.89582 15.5452C9.09203 16.2688 9.09015 17.9504 7.89582 18.6759C7.7614 18.7578 7.62416 18.8373 7.48504 18.9136C6.18616 19.6332 5.7402 21.2269 6.49016 22.4748C7.24009 23.7227 8.90266 24.1492 10.2019 23.4296C10.2684 23.3925 10.3366 23.3561 10.4041 23.3206C11.6899 22.6465 13.2805 23.5103 13.2833 24.914V24.9411C13.2833 26.3803 14.4999 27.5475 15.9998 27.5475C17.4997 27.5475 18.7167 26.3803 18.7167 24.9411V24.914C18.7198 23.5087 20.313 22.6421 21.5959 23.319C21.6637 23.3545 21.7303 23.391 21.7981 23.4281C23.1011 24.1411 24.7599 23.7212 25.5098 22.4732C26.2598 21.2269 25.8157 19.6319 24.5146 18.9123ZM24.0234 21.635C23.391 22.6882 21.9909 23.0424 20.8921 22.4406C20.8346 22.4094 20.7784 22.3786 20.7212 22.3487C19.6387 21.7773 18.2946 22.5088 18.2921 23.6944V23.7171C18.2921 24.9314 17.2658 25.9161 15.9998 25.9161C14.7339 25.9161 13.7079 24.9314 13.7079 23.7171V23.6944C13.7054 22.51 12.3635 21.7811 11.2787 22.3499C11.2216 22.3798 11.1641 22.4106 11.1082 22.4418C10.0122 23.049 8.60933 22.6891 7.97653 21.6365C7.34373 20.5833 7.71996 19.2388 8.81598 18.632C8.93312 18.5672 9.04902 18.5002 9.16239 18.431C10.1702 17.8192 10.1717 16.4006 9.16239 15.79C9.04933 15.7215 8.93312 15.6536 8.81598 15.5891C7.71871 14.982 7.34373 13.6362 7.97653 12.5846C8.60933 11.5316 10.0097 11.1762 11.1082 11.779C11.1654 11.8105 11.2216 11.8413 11.2787 11.8712C12.3628 12.441 13.7054 11.7123 13.7079 10.5267V10.504C13.7079 9.28969 14.7342 8.30497 15.9998 8.30497C17.2654 8.30497 18.2921 9.28969 18.2921 10.504V10.5267C18.2946 11.7111 19.6374 12.441 20.7212 11.8712C20.7784 11.8413 20.8359 11.8101 20.8921 11.779C21.9881 11.1718 23.391 11.5329 24.0234 12.5846C24.6562 13.6362 24.28 14.982 23.184 15.5891C23.0669 15.6536 22.951 15.7206 22.8376 15.79C21.8298 16.4019 21.8279 17.8211 22.8376 18.431C22.951 18.4996 23.0669 18.5672 23.184 18.632V18.6307C24.2816 19.2379 24.6562 20.5833 24.0234 21.635Z" fill="#3189E2"/>
<path d="M21.8343 18.3459V18.3468C21.7391 18.2943 21.6449 18.2393 21.5531 18.1837C20.733 17.6878 20.7346 16.5345 21.5531 16.0374C21.6452 15.9811 21.7391 15.9268 21.8343 15.8743C22.7245 15.3809 23.03 14.2872 22.516 13.4324C22.0024 12.578 20.8632 12.2847 19.973 12.7781C19.9273 12.8033 19.8806 12.8285 19.8343 12.853C18.954 13.3159 17.8637 12.7228 17.8616 11.7603V11.7419C17.8616 10.7551 17.0279 9.95508 15.9999 9.95508C14.9719 9.95508 14.1386 10.7551 14.1386 11.7419V11.7603C14.1368 12.7237 13.0462 13.3159 12.1659 12.853C12.1196 12.8285 12.0739 12.8036 12.0272 12.7781C11.1354 12.2881 9.99815 12.5771 9.48414 13.4324C8.97015 14.2872 9.27471 15.3809 10.1659 15.8743C10.2611 15.9268 10.3553 15.9818 10.4473 16.0374C11.2669 16.5336 11.2656 17.6863 10.4473 18.1837C10.355 18.2399 10.2611 18.2943 10.1659 18.3468C9.27565 18.8402 8.97015 19.9326 9.48414 20.7883C9.99815 21.644 11.1373 21.9364 12.0272 21.443C12.0729 21.4175 12.1196 21.3926 12.1659 21.3681C13.0468 20.9061 14.1368 21.4983 14.1386 22.4605V22.4792C14.1386 23.466 14.9723 24.266 15.9999 24.266C17.0276 24.266 17.8616 23.466 17.8616 22.4792V22.4605C17.8637 21.4974 18.9553 20.903 19.8343 21.3672C19.8809 21.3914 19.9266 21.4166 19.973 21.442C20.8654 21.9308 22.0024 21.6431 22.516 20.7874C23.03 19.9326 22.7255 18.8393 21.8343 18.3459ZM21.0345 19.9513C20.6375 20.6125 19.7573 20.8383 19.0695 20.4571C19.0336 20.4375 18.9985 20.418 18.9625 20.3993C18.2832 20.0408 17.4399 20.4997 17.4383 21.2441V21.2584C17.4383 22.0209 16.7941 22.6392 16.0003 22.6392C15.2064 22.6392 14.5619 22.0209 14.5619 21.2584V21.2441C14.5603 20.5006 13.717 20.0408 13.0377 20.3999C13.002 20.4189 12.9657 20.4382 12.9307 20.4577C12.2429 20.839 11.3627 20.6131 10.9657 19.9522C10.5685 19.2911 10.8048 18.4469 11.4926 18.0656C11.5661 18.0252 11.6388 17.983 11.7098 17.9398C12.3421 17.5555 12.3421 16.6663 11.7098 16.2813C11.6388 16.2387 11.5661 16.1958 11.4926 16.1554C10.8039 15.7742 10.5685 14.9294 10.9657 14.2689C11.3627 13.608 12.2429 13.3821 12.9307 13.763C12.9666 13.7826 13.002 13.8022 13.0377 13.8211C13.717 14.1803 14.5603 13.7211 14.5619 12.977V12.9627C14.5619 12.2002 15.2061 11.5819 16.0003 11.5819C16.7944 11.5819 17.4383 12.2002 17.4383 12.9627V12.977C17.4399 13.7205 18.2832 14.1803 18.9625 13.8211C18.9985 13.8022 19.0345 13.7826 19.0695 13.763C19.7573 13.3821 20.6375 13.6086 21.0345 14.2689C21.4317 14.9294 21.1957 15.7742 20.5076 16.1554C20.4344 16.1958 20.3618 16.2378 20.2904 16.2813C19.6581 16.6656 19.6581 17.5546 20.2904 17.9398C20.3618 17.9824 20.4344 18.0252 20.5076 18.0656V18.065C21.1963 18.4463 21.4317 19.2911 21.0345 19.9513Z" fill="#3189E2"/>
</svg>