<svg width="142" height="37" viewBox="0 0 142 37" fill="none" xmlns="http://www.w3.org/2000/svg">
<path d="M27.5122 20.7684C27.3046 20.6511 27.0991 20.5273 26.8981 20.4035C25.1111 19.2893 25.1111 16.7154 26.8981 15.6033C27.0991 15.4774 27.3046 15.3557 27.5122 15.2384C29.4561 14.1351 30.1232 11.6894 29.001 9.77799C27.8789 7.86662 25.3916 7.21067 23.4477 8.31405C23.3483 8.37053 23.2467 8.427 23.1451 8.4813C21.2255 9.5217 18.8421 8.19025 18.8376 6.03778V5.99651C18.8376 3.78974 17.0175 2 14.7732 2C12.5289 2 10.7087 3.78974 10.7087 5.99651C10.7087 6.00954 10.7087 6.02475 10.7087 6.03778C10.7043 8.19242 8.3208 9.5217 6.40122 8.4813C6.29961 8.427 6.20021 8.37053 6.0986 8.31405C4.15471 7.21067 1.66743 7.86445 0.545281 9.77799C-0.576868 11.6894 0.0880274 14.1351 2.03412 15.2384C2.24176 15.3557 2.44719 15.4795 2.64821 15.6033C4.43525 16.7176 4.43525 19.2914 2.64821 20.4035C2.44719 20.5295 2.24176 20.6511 2.03412 20.7684C0.0902364 21.8718 -0.576868 24.3153 0.545281 26.2288C1.66743 28.1424 4.15471 28.7962 6.0986 27.6928C6.198 27.6363 6.29961 27.5798 6.40122 27.5255C8.3208 26.4851 10.7043 27.8166 10.7087 29.9691C10.7087 29.9821 10.7087 29.9973 10.7087 30.0103C10.7087 32.2171 12.5289 34.0068 14.7732 34.0068C17.0175 34.0068 18.8376 32.2171 18.8376 30.0103V29.9691C18.8421 27.8144 21.2255 26.4851 23.1451 27.5234C23.2467 27.5777 23.3461 27.6341 23.4477 27.6906C25.3916 28.794 27.8789 28.1402 29.001 26.2267C30.1232 24.3153 29.4583 21.8696 27.5122 20.7662V20.7684ZM27.2781 25.2514C26.9092 25.8813 26.2178 26.2723 25.4756 26.2723C25.1155 26.2723 24.7576 26.1767 24.4418 25.9986C21.5061 24.3327 18.1639 23.4508 14.7732 23.4508C11.3824 23.4508 8.04027 24.3327 5.10457 25.9986C4.78427 26.1811 4.43525 26.2723 4.07077 26.2723C3.32857 26.2723 2.63937 25.8813 2.26827 25.2514C1.69615 24.2762 2.03633 23.0251 3.02815 22.4626C8.99233 19.0764 12.6967 12.7667 12.6967 5.99651C12.6967 4.87141 13.6289 3.95482 14.7732 3.95482C15.9174 3.95482 16.8496 4.87141 16.8496 5.99651C16.8496 12.7667 20.554 19.0764 26.5182 22.4626C26.9975 22.7362 27.3421 23.175 27.4857 23.7028C27.6293 24.2306 27.5564 24.7801 27.2781 25.2514Z" fill="url(#paint0_linear_234_336)"/>
<path d="M104.739 13.2591H108.013V28.4167H104.739V26.234C103.587 27.8407 101.799 28.8108 99.4342 28.8108C95.3114 28.8108 91.8857 25.3245 91.8857 20.8379C91.8857 16.3209 95.3114 12.865 99.4342 12.865C101.799 12.865 103.587 13.8351 104.739 15.4115V13.2591ZM99.9496 25.6883C102.678 25.6883 104.739 23.6572 104.739 20.8379C104.739 18.0186 102.678 15.9875 99.9496 15.9875C97.2212 15.9875 95.1598 18.0186 95.1598 20.8379C95.1598 23.6572 97.2212 25.6883 99.9496 25.6883Z" fill="black"/>
<path d="M86.3571 15.8056C87.2665 13.7442 89.1157 12.9863 91.0256 12.9863V16.5332C88.8732 16.3816 86.3571 17.382 86.3571 20.7773V28.4168H83.083V13.2592H86.3571V15.8056Z" fill="black"/>
<path d="M75.9803 13.259H79.2544V28.4166H75.9803V26.4765C74.9799 28.0529 73.3429 28.8107 71.2815 28.8107C67.8862 28.8107 65.4609 26.5068 65.4609 22.5658V13.259H68.735V22.2323C68.735 24.5363 70.0689 25.7489 72.1303 25.7489C74.2827 25.7489 75.9803 24.4757 75.9803 21.3835V13.259Z" fill="black"/>
<path d="M60.1131 28.4167L58.6276 24.1423H49.5937L48.1083 28.4167H44.3188L52.0189 7.19604H56.2024L63.8722 28.4167H60.1131ZM50.7457 20.8682H57.4757L54.1107 11.2886L50.7457 20.8682Z" fill="black"/>
<path d="M114.887 20.458V23.2531C114.541 22.8538 113.974 22.6143 113.344 22.6143C111.747 22.6143 110.844 23.9605 110.844 25.4322C110.844 26.8925 111.747 28.2388 113.344 28.2388C113.974 28.2388 114.541 27.9992 114.887 27.5999V28.0905H116V20.458H114.887ZM114.929 25.4322C114.929 26.5731 114.184 27.1207 113.417 27.1207C112.545 27.1207 111.957 26.3449 111.957 25.4322C111.957 24.5081 112.545 23.7323 113.417 23.7323C114.184 23.7323 114.929 24.2913 114.929 25.4322Z" fill="black"/>
<path d="M120.025 22.6143C118.523 22.6143 117.4 23.8122 117.4 25.4322C117.4 27.0409 118.523 28.2388 120.025 28.2388C121.506 28.2388 122.64 27.0409 122.64 25.4322C122.64 23.8122 121.506 22.6143 120.025 22.6143ZM120.025 27.1207C119.154 27.1207 118.513 26.3906 118.513 25.4322C118.513 24.4511 119.154 23.7323 120.025 23.7323C120.907 23.7323 121.527 24.4511 121.527 25.4322C121.527 26.3906 120.907 27.1207 120.025 27.1207Z" fill="black"/>
<path d="M128.697 24.4168C128.329 23.3102 127.426 22.6143 126.334 22.6143C124.864 22.6143 123.74 23.8122 123.74 25.4208C123.74 27.0409 124.864 28.2388 126.334 28.2388C127.426 28.2388 128.329 27.5428 128.697 26.4362H127.531C127.279 26.8811 126.838 27.1207 126.334 27.1207C125.462 27.1207 124.853 26.3791 124.853 25.4208C124.853 24.4511 125.462 23.7323 126.334 23.7323C126.838 23.7323 127.279 23.9719 127.531 24.4168H128.697Z" fill="black"/>
<path d="M134.488 24.3028C134.236 23.3444 133.438 22.6143 131.968 22.6143C130.624 22.6143 129.794 23.3672 129.794 24.337C129.794 25.2953 130.34 25.7631 131.433 25.8886L132.43 25.9912C133.018 26.0483 133.323 26.208 133.323 26.5845C133.323 26.9838 132.892 27.1892 132.315 27.1892C131.527 27.1892 131.034 26.961 130.865 26.4704H129.647C129.868 27.52 130.76 28.2388 132.199 28.2388C133.596 28.2388 134.436 27.4972 134.436 26.5275C134.436 25.5235 133.827 25.0329 132.745 24.9416L131.811 24.8618C131.223 24.8047 130.907 24.6564 130.907 24.2913C130.907 23.892 131.317 23.6639 131.947 23.6639C132.619 23.6639 133.071 23.8578 133.281 24.3028H134.488Z" fill="black"/>
<defs>
<linearGradient id="paint0_linear_234_336" x1="20.5747" y1="27.2985" x2="12.283" y2="7.36049" gradientUnits="userSpaceOnUse">
<stop stop-color="#FFD569"/>
<stop offset="0.515056" stop-color="#FC8E4F"/>
<stop offset="1" stop-color="#FF697B"/>
</linearGradient>
</defs>
</svg>
